<svg width="39" height="36" viewBox="0 0 39 36" fill="none" xmlns="http://www.w3.org/2000/svg">
<rect width="39" height="36" fill="white"/>
<path d="M20 7.22089V3H5V32H20V27.7791C16.9272 27.7791 13.9803 26.6961 11.8076 24.7684C9.63482 22.8407 8.41418 20.2262 8.41418 17.5C8.41418 14.7738 9.63482 12.1592 11.8076 10.2316C13.9803 8.30387 16.9272 7.22089 20 7.22089Z" fill="#394149"/>
<path d="M20 7V28C23.1826 28 26.2349 26.8937 28.4853 24.9246C30.7358 22.9554 32 20.2848 32 17.5C32 14.7152 30.7358 12.0445 28.4853 10.0754C26.2349 8.10625 23.1826 7 20 7Z" fill="#394149"/>
</svg>
