<svg width="129" height="129" viewBox="0 0 129 129" fill="none" xmlns="http://www.w3.org/2000/svg">
<g opacity="0.1">
    <path opacity="0.1" d="M128.13 125.12V128.12H125.13" stroke="#20263C" stroke-miterlimit="10"/>
    <path opacity="0.1" d="M119.36 128.12H6.88989" stroke="#20263C" stroke-miterlimit="10" stroke-dasharray="5.77 5.77"/>
    <path opacity="0.1" d="M4 128.12H1V125.12" stroke="#20263C" stroke-miterlimit="10"/>
    <path opacity="0.1" d="M1 119.35V6.88" stroke="#20263C" stroke-miterlimit="10" stroke-dasharray="5.77 5.77"/>
    <path opacity="0.1" d="M1 4V1H4" stroke="#20263C" stroke-miterlimit="10"/>
    <path opacity="0.1" d="M9.77002 1H122.24" stroke="#20263C" stroke-miterlimit="10" stroke-dasharray="5.77 5.77"/>
    <path opacity="0.1" d="M125.13 1H128.13V4" stroke="#20263C" stroke-miterlimit="10"/>
    <path opacity="0.1" d="M128.13 9.76001V122.24" stroke="#20263C" stroke-miterlimit="10" stroke-dasharray="5.77 5.77"/>
</g>
<path d="M65.5105 49.6404C67.4728 49.6422 69.4127 50.0683 71.2036 50.8907C72.9945 51.7132 74.5963 52.9136 75.9045 54.4136L80 50.6269C77.3785 47.637 73.9392 45.5269 70.1308 44.5721C66.3225 43.6172 62.322 43.8619 58.6512 45.2742C54.9805 46.6865 51.81 49.2008 49.5536 52.489C47.2971 55.7773 46.0595 59.6867 46.0021 63.7073C45.9447 67.7278 47.0703 71.6728 49.2319 75.0273C51.3936 78.3819 54.4909 80.9903 58.1198 82.5122C61.7486 84.034 65.7405 84.3987 69.5745 83.5586C73.4084 82.7185 76.9065 80.7126 79.6122 77.8027L75.6097 73.9045C74.0153 75.6146 72.0326 76.8928 69.8389 77.6249C67.6452 78.357 65.3087 78.5202 63.0385 78.0998C60.7682 77.6795 58.635 76.6888 56.8293 75.2162C55.0236 73.7436 53.6018 71.8351 52.6911 69.6612C51.7803 67.4873 51.4089 65.1158 51.6101 62.7588C51.8114 60.4017 52.5789 58.1325 53.8441 56.1541C55.1094 54.1756 56.8329 52.5495 58.8607 51.4212C60.8884 50.2928 63.1571 49.6974 65.4641 49.6881L65.5105 49.6404Z" fill="#414042"/>
<path d="M47 44.9093L42.9594 41C39.8029 44.0152 37.2982 47.5992 35.589 51.5463C33.8799 55.4933 33 59.7256 33 64C33 68.2744 33.8799 72.5067 35.589 76.4537C37.2982 80.4008 39.8029 83.9848 42.9594 87L47 83.0907C44.3683 80.5944 42.2789 77.6216 40.8528 74.3445C39.4268 71.0675 38.6925 67.5514 38.6925 64C38.6925 60.4486 39.4268 56.9325 40.8528 53.6555C42.2789 50.3784 44.3683 47.4056 47 44.9093Z" fill="#414042"/>
<path d="M85 37.4753C79.4907 33.2602 72.8335 30.9914 66 31V36.6759C71.6385 36.6705 77.1326 38.5351 81.6877 42L85 37.4753Z" fill="#414042"/>
<path d="M66 91.4006V97C72.3922 97.0072 78.6477 95.1435 84 91.6372L80.8559 87C76.433 89.879 71.2722 91.4078 66 91.4006Z" fill="#414042"/>
<path d="M66 84.4849C61.6698 84.482 57.445 83.187 53.8976 80.7751C50.3501 78.3632 47.6513 74.9508 46.1663 71L41 73.3303C42.9455 78.2367 46.3755 82.4556 50.8382 85.4312C55.3009 88.4069 60.5869 89.9997 66 90V84.4849Z" fill="#414042"/>
<path d="M45.517 63C45.8524 57.7395 48.1558 52.8049 51.9597 49.1974C55.7636 45.59 60.7832 43.5798 66 43.5747V38C59.3193 37.9998 52.8943 40.595 48.0546 45.2485C43.2149 49.9021 40.331 56.2577 40 63H45.517Z" fill="#414042"/>
<path d="M60.044 70L61.016 57.868H63.608L65.264 62.278C65.552 63.022 65.822 63.766 66.074 64.51C66.326 65.242 66.506 65.788 66.614 66.148L66.776 66.706C67.148 65.458 67.664 63.982 68.324 62.278L70.016 57.868H72.608L73.796 70H71.528L71.096 65.266L70.772 61.018C70.34 62.254 69.824 63.67 69.224 65.266L67.532 69.82H65.984L64.328 65.266L62.906 61.072C62.906 61.66 62.828 63.058 62.672 65.266L62.312 70H60.044ZM78.3659 68.146H80.3099C81.7619 68.146 82.4879 67.594 82.4879 66.49C82.4879 65.362 81.7319 64.798 80.2199 64.798H78.3659V68.146ZM78.3659 59.722V62.98H79.7339C80.5499 62.98 81.1619 62.818 81.5699 62.494C81.9779 62.17 82.1819 61.756 82.1819 61.252C82.1819 60.784 82.0079 60.412 81.6599 60.136C81.3239 59.86 80.8079 59.722 80.1119 59.722H78.3659ZM76.0979 57.868H80.3999C81.6959 57.868 82.7039 58.174 83.4239 58.786C84.1439 59.398 84.5039 60.19 84.5039 61.162C84.5039 61.822 84.3239 62.398 83.9639 62.89C83.6039 63.37 83.1419 63.688 82.5779 63.844C83.2259 64 83.7599 64.318 84.1799 64.798C84.5999 65.266 84.8099 65.908 84.8099 66.724C84.8099 67.684 84.4739 68.47 83.8019 69.082C83.1299 69.694 82.1999 70 81.0119 70H76.0979V57.868ZM89.0722 68.11H90.6742C91.9462 68.11 92.9122 67.72 93.5722 66.94C94.2322 66.148 94.5622 65.092 94.5622 63.772C94.5622 62.608 94.2082 61.654 93.5002 60.91C92.8042 60.154 91.8502 59.776 90.6382 59.776H89.0722V68.11ZM86.7502 57.868H90.7102C92.5222 57.868 94.0042 58.426 95.1562 59.542C96.3082 60.658 96.8842 62.068 96.8842 63.772C96.8842 65.632 96.3262 67.138 95.2102 68.29C94.0942 69.43 92.5942 70 90.7102 70H86.7502V57.868ZM101.219 68.11H102.821C104.093 68.11 105.059 67.72 105.719 66.94C106.379 66.148 106.709 65.092 106.709 63.772C106.709 62.608 106.355 61.654 105.647 60.91C104.951 60.154 103.997 59.776 102.785 59.776H101.219V68.11ZM98.8967 57.868H102.857C104.669 57.868 106.151 58.426 107.303 59.542C108.455 60.658 109.031 62.068 109.031 63.772C109.031 65.632 108.473 67.138 107.357 68.29C106.241 69.43 104.741 70 102.857 70H98.8967V57.868Z" fill="#414042"/>
</svg>
