<svg width="128" height="128" viewBox="0 0 128 128" fill="none" xmlns="http://www.w3.org/2000/svg">
<g opacity="0.1">
<path opacity="0.1" d="M127.13 124.12V127.12H124.13" fill="white"/>
<path opacity="0.1" d="M3 127.12H0V124.12" fill="white"/>
<path opacity="0.1" d="M0 3V0H3" fill="white"/>
<path opacity="0.1" d="M124.13 0H127.13V3" fill="white"/>
</g>
<path d="M64.5105 48.6404C66.4728 48.6422 68.4127 49.0683 70.2036 49.8907C71.9945 50.7132 73.5963 51.9136 74.9045 53.4136L79 49.6269C76.3785 46.637 72.9392 44.5269 69.1308 43.5721C65.3225 42.6172 61.322 42.8619 57.6512 44.2742C53.9805 45.6865 50.81 48.2008 48.5536 51.489C46.2971 54.7773 45.0595 58.6867 45.0021 62.7073C44.9447 66.7278 46.0703 70.6728 48.2319 74.0273C50.3936 77.3819 53.4909 79.9903 57.1198 81.5122C60.7486 83.034 64.7405 83.3987 68.5745 82.5586C72.4084 81.7185 75.9065 79.7126 78.6122 76.8027L74.6097 72.9045C73.0153 74.6146 71.0326 75.8928 68.8389 76.6249C66.6452 77.357 64.3087 77.5202 62.0385 77.0998C59.7682 76.6795 57.635 75.6888 55.8293 74.2162C54.0236 72.7436 52.6018 70.8351 51.6911 68.6612C50.7803 66.4873 50.4089 64.1158 50.6101 61.7588C50.8114 59.4017 51.5789 57.1325 52.8441 55.1541C54.1094 53.1756 55.8329 51.5495 57.8607 50.4212C59.8884 49.2928 62.1571 48.6974 64.4641 48.6881L64.5105 48.6404Z" fill="white"/>
<path d="M46 43.9093L41.9594 40C38.8029 43.0152 36.2982 46.5992 34.589 50.5463C32.8799 54.4933 32 58.7256 32 63C32 67.2744 32.8799 71.5067 34.589 75.4537C36.2982 79.4008 38.8029 82.9848 41.9594 86L46 82.0907C43.3683 79.5944 41.2789 76.6216 39.8528 73.3445C38.4268 70.0675 37.6925 66.5514 37.6925 63C37.6925 59.4486 38.4268 55.9325 39.8528 52.6555C41.2789 49.3784 43.3683 46.4056 46 43.9093Z" fill="white"/>
<path d="M84 36.4753C78.4907 32.2602 71.8335 29.9914 65 30V35.6759C70.6385 35.6705 76.1326 37.5351 80.6877 41L84 36.4753Z" fill="white"/>
<path d="M65 90.4006V96C71.3922 96.0072 77.6477 94.1435 83 90.6372L79.8559 86C75.433 88.879 70.2722 90.4078 65 90.4006Z" fill="white"/>
<path d="M65 83.4849C60.6698 83.482 56.445 82.187 52.8976 79.7751C49.3501 77.3632 46.6513 73.9508 45.1663 70L40 72.3303C41.9455 77.2367 45.3755 81.4556 49.8382 84.4312C54.3009 87.4069 59.5869 88.9997 65 89V83.4849Z" fill="white"/>
<path d="M44.517 62C44.8524 56.7395 47.1558 51.8049 50.9597 48.1974C54.7636 44.59 59.7832 42.5798 65 42.5747V37C58.3193 36.9998 51.8943 39.595 47.0546 44.2485C42.2149 48.9021 39.331 55.2577 39 62H44.517Z" fill="white"/>
<path d="M59.044 69L60.016 56.868H62.608L64.264 61.278C64.552 62.022 64.822 62.766 65.074 63.51C65.326 64.242 65.506 64.788 65.614 65.148L65.776 65.706C66.148 64.458 66.664 62.982 67.324 61.278L69.016 56.868H71.608L72.796 69H70.528L70.096 64.266L69.772 60.018C69.34 61.254 68.824 62.67 68.224 64.266L66.532 68.82H64.984L63.328 64.266L61.906 60.072C61.906 60.66 61.828 62.058 61.672 64.266L61.312 69H59.044ZM77.3659 67.146H79.3099C80.7619 67.146 81.4879 66.594 81.4879 65.49C81.4879 64.362 80.7319 63.798 79.2199 63.798H77.3659V67.146ZM77.3659 58.722V61.98H78.7339C79.5499 61.98 80.1619 61.818 80.5699 61.494C80.9779 61.17 81.1819 60.756 81.1819 60.252C81.1819 59.784 81.0079 59.412 80.6599 59.136C80.3239 58.86 79.8079 58.722 79.1119 58.722H77.3659ZM75.0979 56.868H79.3999C80.6959 56.868 81.7039 57.174 82.4239 57.786C83.1439 58.398 83.5039 59.19 83.5039 60.162C83.5039 60.822 83.3239 61.398 82.9639 61.89C82.6039 62.37 82.1419 62.688 81.5779 62.844C82.2259 63 82.7599 63.318 83.1799 63.798C83.5999 64.266 83.8099 64.908 83.8099 65.724C83.8099 66.684 83.4739 67.47 82.8019 68.082C82.1299 68.694 81.1999 69 80.0119 69H75.0979V56.868ZM88.0722 67.11H89.6742C90.9462 67.11 91.9122 66.72 92.5722 65.94C93.2322 65.148 93.5622 64.092 93.5622 62.772C93.5622 61.608 93.2082 60.654 92.5002 59.91C91.8042 59.154 90.8502 58.776 89.6382 58.776H88.0722V67.11ZM85.7502 56.868H89.7102C91.5222 56.868 93.0042 57.426 94.1562 58.542C95.3082 59.658 95.8842 61.068 95.8842 62.772C95.8842 64.632 95.3262 66.138 94.2102 67.29C93.0942 68.43 91.5942 69 89.7102 69H85.7502V56.868ZM100.219 67.11H101.821C103.093 67.11 104.059 66.72 104.719 65.94C105.379 65.148 105.709 64.092 105.709 62.772C105.709 61.608 105.355 60.654 104.647 59.91C103.951 59.154 102.997 58.776 101.785 58.776H100.219V67.11ZM97.8967 56.868H101.857C103.669 56.868 105.151 57.426 106.303 58.542C107.455 59.658 108.031 61.068 108.031 62.772C108.031 64.632 107.473 66.138 106.357 67.29C105.241 68.43 103.741 69 101.857 69H97.8967V56.868Z" fill="white"/>
</svg>
