<svg width="77" height="66" viewBox="0 0 77 66" fill="none" xmlns="http://www.w3.org/2000/svg">
<path d="M32.5105 18.6404C34.4728 18.6422 36.4127 19.0683 38.2036 19.8907C39.9945 20.7132 41.5963 21.9136 42.9045 23.4136L47 19.6269C44.3785 16.637 40.9392 14.5269 37.1308 13.5721C33.3225 12.6172 29.322 12.8619 25.6512 14.2742C21.9805 15.6865 18.81 18.2008 16.5536 21.489C14.2971 24.7773 13.0595 28.6867 13.0021 32.7073C12.9447 36.7278 14.0703 40.6728 16.2319 44.0273C18.3936 47.3819 21.4909 49.9903 25.1198 51.5122C28.7486 53.034 32.7405 53.3987 36.5745 52.5586C40.4084 51.7185 43.9065 49.7126 46.6122 46.8027L42.6097 42.9045C41.0153 44.6146 39.0326 45.8928 36.8389 46.6249C34.6452 47.357 32.3087 47.5202 30.0385 47.0998C27.7682 46.6795 25.635 45.6888 23.8293 44.2162C22.0236 42.7436 20.6018 40.8351 19.6911 38.6612C18.7803 36.4873 18.4089 34.1158 18.6101 31.7588C18.8114 29.4017 19.5789 27.1325 20.8441 25.1541C22.1094 23.1756 23.8329 21.5495 25.8607 20.4212C27.8884 19.2928 30.1571 18.6974 32.4641 18.6881L32.5105 18.6404Z" fill="white"/>
<path d="M14 13.9093L9.9594 10C6.8029 13.0152 4.2982 16.5992 2.589 20.5463C0.879901 24.4933 0 28.7256 0 33C0 37.2744 0.879901 41.5067 2.589 45.4537C4.2982 49.4008 6.8029 52.9848 9.9594 56L14 52.0907C11.3683 49.5944 9.2789 46.6216 7.8528 43.3445C6.4268 40.0675 5.6925 36.5514 5.6925 33C5.6925 29.4486 6.4268 25.9325 7.8528 22.6555C9.2789 19.3784 11.3683 16.4056 14 13.9093Z" fill="white"/>
<path d="M52 6.4753C46.4907 2.2602 39.8335 -0.00859853 33 1.47077e-06V5.6759C38.6385 5.6705 44.1326 7.5351 48.6877 11L52 6.4753Z" fill="white"/>
<path d="M33 60.4006V66C39.3922 66.0072 45.6477 64.1435 51 60.6372L47.8559 56C43.433 58.879 38.2722 60.4078 33 60.4006Z" fill="white"/>
<path d="M33 53.4849C28.6698 53.482 24.445 52.187 20.8976 49.7751C17.3501 47.3632 14.6513 43.9508 13.1663 40L8 42.3303C9.9455 47.2367 13.3755 51.4556 17.8382 54.4312C22.3009 57.4069 27.5869 58.9997 33 59V53.4849Z" fill="white"/>
<path d="M12.517 32C12.8524 26.7395 15.1558 21.8049 18.9597 18.1974C22.7636 14.59 27.7832 12.5798 33 12.5747V7C26.3193 6.9998 19.8943 9.595 15.0546 14.2485C10.2149 18.9021 7.331 25.2577 7 32H12.517Z" fill="white"/>
<path d="M27.044 39L28.016 26.868H30.608L32.264 31.278C32.552 32.022 32.822 32.766 33.074 33.51C33.326 34.242 33.506 34.788 33.614 35.148L33.776 35.706C34.148 34.458 34.664 32.982 35.324 31.278L37.016 26.868H39.608L40.796 39H38.528L38.096 34.266L37.772 30.018C37.34 31.254 36.824 32.67 36.224 34.266L34.532 38.82H32.984L31.328 34.266L29.906 30.072C29.906 30.66 29.828 32.058 29.672 34.266L29.312 39H27.044ZM45.3659 37.146H47.3099C48.7619 37.146 49.4879 36.594 49.4879 35.49C49.4879 34.362 48.7319 33.798 47.2199 33.798H45.3659V37.146ZM45.3659 28.722V31.98H46.7339C47.5499 31.98 48.1619 31.818 48.5699 31.494C48.9779 31.17 49.1819 30.756 49.1819 30.252C49.1819 29.784 49.0079 29.412 48.6599 29.136C48.3239 28.86 47.8079 28.722 47.1119 28.722H45.3659ZM43.0979 26.868H47.3999C48.6959 26.868 49.7039 27.174 50.4239 27.786C51.1439 28.398 51.5039 29.19 51.5039 30.162C51.5039 30.822 51.3239 31.398 50.9639 31.89C50.6039 32.37 50.1419 32.688 49.5779 32.844C50.2259 33 50.7599 33.318 51.1799 33.798C51.5999 34.266 51.8099 34.908 51.8099 35.724C51.8099 36.684 51.4739 37.47 50.8019 38.082C50.1299 38.694 49.1999 39 48.0119 39H43.0979V26.868ZM56.0722 37.11H57.6742C58.9462 37.11 59.9122 36.72 60.5722 35.94C61.2322 35.148 61.5622 34.092 61.5622 32.772C61.5622 31.608 61.2082 30.654 60.5002 29.91C59.8042 29.154 58.8502 28.776 57.6382 28.776H56.0722V37.11ZM53.7502 26.868H57.7102C59.5222 26.868 61.0042 27.426 62.1562 28.542C63.3082 29.658 63.8842 31.068 63.8842 32.772C63.8842 34.632 63.3262 36.138 62.2102 37.29C61.0942 38.43 59.5942 39 57.7102 39H53.7502V26.868ZM68.2187 37.11H69.8207C71.0927 37.11 72.0587 36.72 72.7187 35.94C73.3787 35.148 73.7087 34.092 73.7087 32.772C73.7087 31.608 73.3547 30.654 72.6467 29.91C71.9507 29.154 70.9967 28.776 69.7847 28.776H68.2187V37.11ZM65.8967 26.868H69.8567C71.6687 26.868 73.1507 27.426 74.3027 28.542C75.4547 29.658 76.0307 31.068 76.0307 32.772C76.0307 34.632 75.4727 36.138 74.3567 37.29C73.2407 38.43 71.7407 39 69.8567 39H65.8967V26.868Z" fill="white"/>
</svg>
