<svg width="27" height="29" viewBox="0 0 27 29" fill="none" xmlns="http://www.w3.org/2000/svg">
<path d="M15 4.22089V0H0V29H15V24.7791C11.9272 24.7791 8.9803 23.6961 6.80758 21.7684C4.63482 19.8407 3.41418 17.2262 3.41418 14.5C3.41418 11.7738 4.63482 9.15924 6.80758 7.23157C8.9803 5.30387 11.9272 4.22089 15 4.22089Z" fill="white"/>
<path d="M15 4V25C18.1826 25 21.2349 23.8937 23.4853 21.9246C25.7358 19.9554 27 17.2848 27 14.5C27 11.7152 25.7358 9.04447 23.4853 7.07538C21.2349 5.10625 18.1826 4 15 4Z" fill="white"/>
</svg>
